<svg width="864" height="1117" viewBox="0 0 864 1117" fill="none" xmlns="http://www.w3.org/2000/svg">
<g clip-path="url(#clip0_1080_5496)">
<path d="M1727.13 4.20021C1702.22 -0.917944 1676.23 1.65898 1651.26 3.06174C1618.88 4.88153 1586.59 9.35555 1554.26 12.9193C1538.46 14.6633 1522.64 16.5216 1506.88 19.2892C1495.98 21.1848 1485.44 25.4683 1474.7 28.0842C1451.31 33.7331 1427.74 37.0316 1404.32 42.3772C1355.12 53.5993 1306.46 70.5843 1256.86 74.9822C1224.15 77.8635 1191.54 84.8395 1158.76 87.4555C1135.3 89.3511 1111.81 88.0227 1088.34 88.8568C952.601 93.8612 816.939 82.4131 681.418 69.4471C610.916 62.6987 540.434 56.2901 469.953 48.1011C435.38 44.0824 400.787 40.216 366.214 36.4627C330.387 32.5956 294.539 30.3975 258.712 26.7958C120.763 12.9578 -17.2462 2.03847 -155.437 3.44123C-169.679 3.59288 -183.901 3.82109 -198.143 4.20021" stroke="white" stroke-opacity="0.1" stroke-miterlimit="10" stroke-linecap="round"/>
<path d="M1761.86 176.815C1700.02 176.171 1638.24 180.72 1576.45 185.497C1545.58 187.886 1514.65 188.947 1483.8 192.928C1462.23 195.695 1440.69 198.995 1419.04 201.497C1392.42 204.568 1365.78 207.184 1339.16 209.799C1317.23 211.923 1295.38 215.258 1273.47 217.267C1240.21 220.338 1206.87 222.841 1173.57 221.362C1138.13 219.77 1102.73 216.357 1067.3 213.968C1053.43 213.021 1039.51 212.112 1025.67 209.951C1022.13 209.383 1018.57 208.131 1015.03 207.676C1008.7 206.842 1002 208.51 995.629 208.965C961.744 211.391 927.839 212.869 893.933 213.968C824.504 216.205 754.811 220.793 685.402 217.191C609.661 213.286 533.92 209.04 458.199 203.846C384.724 198.766 311.208 192.208 237.713 189.516C166.564 186.9 95.455 181.554 24.3061 179.355C-47.2879 177.118 -118.861 175.906 -190.455 176.399C-204.575 176.512 -218.697 176.664 -232.817 176.854" stroke="white" stroke-opacity="0.1" stroke-miterlimit="10" stroke-linecap="round"/>
<path d="M1776 358C1715.19 358 1654.36 358 1593.55 358C1534.64 358 1475.71 358 1416.8 358C1364.74 358 1312.69 358 1260.62 358C1200.17 358 1139.75 358 1079.3 358C1019.86 358 960.428 358 900.992 358C831.482 358 761.991 358 692.481 358C616.639 358 540.797 358 464.934 358C390.265 358 315.596 358 240.927 358C165.348 358 89.769 358 14.21 358C-59.5081 358 -133.206 358 -206.924 358C-220.276 358 -233.648 358 -247 358" stroke="white" stroke-opacity="0.1" stroke-miterlimit="10" stroke-linecap="round"/>
<path d="M1761.86 539.184C1700.56 538.199 1639.33 534.825 1578.09 530.162C1542.08 527.432 1506.09 525.232 1470.1 522.161C1443.12 519.848 1416.27 515.337 1389.35 511.963C1363.82 508.778 1338.2 505.935 1312.63 503.432C1285.46 500.779 1258.34 497.557 1231.17 494.562C1207.44 491.946 1183.93 487.434 1160.24 484.439C1127 480.269 1093.7 478.601 1060.45 475.113C991.118 467.872 921.729 463.246 852.3 460.365C795.271 458.014 738.243 458.809 681.215 460.553C607.881 462.79 534.648 466.962 461.355 472.194C386.969 477.501 312.766 482.392 238.481 491.794C166.786 500.855 94.9696 509.688 23.2341 516.702C-48.4206 523.678 -120.015 530.464 -191.71 535.734C-205.426 536.757 -219.162 537.819 -232.878 539.146" stroke="white" stroke-opacity="0.1" stroke-miterlimit="10" stroke-linecap="round"/>
<path d="M1727.13 711.796C1666.7 708.877 1606.47 702.622 1546.23 693.295C1511.15 687.874 1476.11 681.96 1441.05 676.274C1412.57 671.648 1383.84 667.326 1355.62 658.417C1331.41 650.759 1306.95 646.17 1282.55 640.786C1267.7 637.526 1253.02 633.697 1238.05 632.712C1222.97 631.726 1207.86 625.774 1192.87 622.513C1140.35 611.064 1088.32 594.724 1035.64 585.549C967.59 573.682 899.315 559.502 831.039 553.436C804.274 551.048 777.49 549.153 750.705 547.409C721.25 545.513 691.491 548.433 662.057 550.404C594.489 554.916 527.346 566.63 460.121 578.155C390.409 590.136 320.514 600.372 251.247 619.859C183.375 638.967 115.322 655.8 47.1667 671.04C29.5666 674.983 12.0467 679.912 -5.65458 683.514C-23.4974 687.153 -41.3605 690.565 -59.2236 693.788C-92.0973 699.74 -125.011 704.1 -157.986 707.777C-171.358 709.256 -184.73 710.621 -198.122 711.796" stroke="white" stroke-opacity="0.1" stroke-miterlimit="10" stroke-linecap="round"/>
<path d="M1681.59 875.577C1622.15 871.71 1563.02 862.838 1503.95 849.759C1471.7 842.593 1439.51 834.518 1407.29 827.087C1375.59 819.77 1343.89 811.695 1312.49 800.625C1299.99 796.227 1287.67 790.578 1275.21 785.991C1262.91 781.479 1250.46 778.446 1238.1 774.617C1225.82 770.826 1213.61 766.351 1201.37 762.105C1185.63 756.646 1169.75 753.234 1154.01 747.851C1129.45 739.472 1104.97 730.941 1080.35 723.245C1056.05 715.663 1032.18 704.176 1007.85 696.518C976.409 686.622 944.789 679.759 913.21 671.76C879.507 663.192 845.744 655.459 811.94 648.862C778.783 642.379 745.646 637.45 712.348 634.227C688.415 631.876 664.564 629.413 640.591 631.119C613.564 633.014 586.497 636.16 559.611 641.734C542.942 645.184 526.271 648.938 509.662 653.146C501.085 655.307 492.507 657.582 483.95 660.008C480.551 660.956 477.153 661.865 473.775 662.813C469.607 663.988 466.006 666.376 462.021 668.196C445.372 675.779 427.792 679.041 410.921 684.955C395.08 690.49 378.957 699.285 362.935 702.204C346.508 705.199 330.324 712.895 314.18 719.302C297.672 725.861 281.186 732.572 264.718 739.472C231.582 753.386 198.687 769.422 165.53 783.26C159.056 785.952 152.644 787.015 146.13 789.062C137.552 791.792 129.036 796.34 120.539 799.866C104.092 806.652 87.6042 813.022 71.0763 819.088C56.9962 824.244 43.2804 830.614 29.1801 835.277C12.3892 840.85 -4.46287 846.005 -21.3347 850.782C-51.9629 859.464 -82.5912 865.986 -113.462 870.725C-126.49 872.735 -139.538 874.478 -152.606 875.653" stroke="white" stroke-opacity="0.1" stroke-miterlimit="10" stroke-linecap="round"/>
<path d="M1631.5 1035C1574.91 1031.62 1518.61 1021.46 1462.58 1006.56C1430.98 998.185 1399.56 987.949 1368.08 978.205C1338.1 968.955 1308.06 959.477 1278.26 948.027C1253.64 938.549 1229.55 925.431 1205.01 915.574C1180.33 905.679 1155.71 895.784 1131.13 885.093C1079.84 862.762 1028.1 843.958 977.076 819.77C919.239 792.359 859.864 776.057 801.035 758.238C741.235 740.116 681.334 726.468 620.867 719.758C609.214 718.469 597.4 716.497 585.707 716.611C573.569 716.762 561.248 719.682 549.191 722.109C520.08 727.947 491.536 737.122 462.992 749.14C432.282 762.068 402.626 779.129 372.524 796.189C358.464 804.151 343.979 816.435 329.494 820.908C314.281 825.609 299.391 837.476 284.846 846.955C255.594 866.024 226.563 886.231 197.311 905.263C183.089 914.514 168.585 926.039 153.716 930.626C139.231 935.1 124.766 947.346 110.686 955.345C80.5841 972.406 50.9265 989.467 20.2174 1002.39C-8.34734 1014.41 -36.8916 1023.59 -65.9823 1029.43C-78.1203 1031.85 -90.2984 1033.9 -102.497 1034.92" stroke="white" stroke-opacity="0.1" stroke-miterlimit="10" stroke-linecap="round"/>
<path d="M1581.41 1194.42C1528.91 1191.39 1476.74 1179.98 1425.03 1163.3C1395.05 1153.63 1365.25 1142.33 1335.58 1129.74C1309.07 1118.52 1282.29 1109.61 1255.79 1098.16C1229.75 1086.9 1204.12 1073.18 1178.45 1059.38C1154.19 1046.34 1129.51 1035.98 1105.2 1023.4C1054.74 997.238 1003.36 977.941 952.763 952.768C898.506 925.774 843.015 907.614 787.565 891.388C730.192 874.593 672.436 862.764 614.355 860.262C565.904 858.177 518.304 864.698 471.249 887.18C442.219 901.018 414.665 920.088 386.586 939.006C379.627 943.707 372.688 948.522 365.79 953.527C358.386 958.872 351.002 965.999 343.415 970.321C339.997 972.292 336.477 973.013 333.078 975.287C329.538 977.638 326.078 980.595 322.599 983.249C315.377 988.822 308.174 994.509 300.993 1000.31C273.116 1022.79 245.542 1046.22 217.422 1067.64C205.082 1077.05 192.863 1085.46 180.199 1092.78C166.362 1100.74 152.91 1112.34 139.214 1121.36C113.36 1138.42 87.9506 1155.14 61.2672 1167.28C36.2427 1178.65 11.1373 1187.07 -14.5143 1191.39C-27.1176 1193.51 -39.7608 1194.84 -52.4248 1194.42" stroke="white" stroke-opacity="0.1" stroke-miterlimit="10" stroke-linecap="round"/>
<path d="M1535.89 1358.2C1484.33 1357.98 1433 1343.91 1382.71 1323.4C1356.25 1312.6 1329.97 1299.9 1304 1285.79C1277.03 1271.16 1249.98 1257.55 1223.42 1240.3C1177.13 1210.2 1131.13 1178.12 1084.95 1147.19C1061.46 1131.45 1038.11 1115.22 1014.57 1099.83C991.786 1084.93 969.473 1067.83 946.532 1053.73C893.691 1021.24 839.353 993.527 784.833 972.864C759.182 963.121 733.41 955.425 707.333 950.761C682.491 946.326 657.385 942.838 632.442 946.25C608.955 949.473 585.487 956.411 562.668 967.178C535.762 979.878 508.573 994.929 483.346 1016.5C471.046 1027.04 458.079 1035.27 445.637 1045.35C432.993 1055.63 420.674 1068.37 407.848 1077.77C394.759 1087.36 382.236 1098.35 369.613 1110.18C356.848 1122.12 344.164 1134.41 331.561 1146.92C306.294 1172.02 280.378 1195.14 254.423 1217.63C242.933 1227.56 231.139 1236.24 219.547 1245.83C206.58 1256.6 193.491 1266.87 180.301 1276.58C131.547 1312.44 82.4285 1343.19 30.053 1354.11C17.7734 1356.65 5.43307 1358.24 -6.90723 1358.28" stroke="white" stroke-opacity="0.1" stroke-miterlimit="10" stroke-linecap="round"/>
<path d="M1501.14 1530.82C1450.2 1531.28 1399.76 1511.64 1351.27 1483.66C1302.09 1455.26 1254.45 1417.73 1208.27 1375.34C1185.99 1354.87 1163.62 1334.59 1141.47 1313.62C1117.03 1290.46 1093.16 1265.21 1068.78 1241.85C1047.52 1221.49 1026.54 1200.15 1005.22 1180.09C981.994 1158.29 958.224 1138.96 934.292 1120.19C887.803 1083.72 840.404 1050.24 790.659 1033.15C765.837 1024.62 740.771 1017.49 715.544 1021.96C690.358 1026.43 665.314 1035.65 641.038 1048.88C536.57 1105.82 443.714 1219.18 348.956 1315.9C302.488 1363.29 254.867 1405.44 207.246 1448.51C184.204 1469.33 159.038 1484.57 134.539 1498.1C112.286 1510.39 89.6284 1519.67 66.6067 1525.32C53.7606 1528.47 40.8131 1530.44 27.8457 1530.86" stroke="white" stroke-opacity="0.1" stroke-miterlimit="10" stroke-linecap="round"/>
<path d="M138.948 1685.38C138.301 1592.16 124.808 1505.49 103.223 1422.08C82.0619 1340.31 56.9561 1261.64 31.001 1184.9C17.6492 1145.44 6.01719 1103.81 -4.19896 1061.2C-8.97324 1041.25 -13.0399 1020.78 -17.8345 1000.88C-23.0943 979.04 -28.0502 956.937 -32.5615 934.531C-40.7546 893.851 -50.2422 854.195 -58.0712 813.25C-66.3655 769.954 -73.9924 726.279 -80.9919 682.225C-88.4164 635.517 -95.1332 587.218 -98.7139 538.917C-102.072 493.84 -104.844 448.041 -104.661 402.318C-104.277 308.978 -86.5351 215.601 -67.4987 130.261C-47.7744 41.8493 -23.1138 -41.6717 2.03204 -124.927C13.5227 -162.991 24.912 -201.511 35.29 -240.674C46.194 -281.809 55.8435 -323.854 65.392 -366.088C103.728 -535.443 130.796 -714.387 137.249 -898.489C138.078 -922.071 138.625 -945.691 138.969 -969.31" stroke="white" stroke-opacity="0.1" stroke-miterlimit="10" stroke-linecap="round"/>
<path d="M230.975 1620.25C230.509 1577.41 227.94 1534.45 221.507 1493.24C215.114 1452.18 204.292 1413.59 192.781 1376.81C186.368 1356.38 179.408 1336.55 172.368 1316.87C165.995 1299.02 161.08 1281.43 154.404 1263.95C140.182 1226.72 125.778 1189.6 112.346 1151.35C99.6008 1115.07 88.9602 1077.91 80.9289 1037.16C76.9841 1017.1 74.9405 996.552 72.0477 976.003C69.0941 954.962 65.4728 934.528 63.2879 913.032C58.9385 870.267 53.0927 827.995 49.3502 784.965C45.5267 740.911 41.8644 696.743 39.0524 652.424C33.4689 564.581 32.1946 472.567 39.7202 385.027C43.5234 340.632 52.445 297.982 61.1642 256.24C69.8631 214.613 79.6344 174.046 90.2754 134.049C110.95 56.3667 135.165 -17.9423 159.704 -91.5679C183.92 -164.17 203.401 -240.033 216.227 -322.265C229.194 -405.368 235.607 -492.49 235.83 -578.893C235.89 -600.313 236.619 -621.543 236.882 -642.925C237.145 -665.445 236.113 -687.737 235.567 -710.219C234.535 -752.15 232.148 -793.931 231.237 -835.9C230.752 -858.685 230.59 -881.47 230.975 -904.255" stroke="white" stroke-opacity="0.1" stroke-miterlimit="10" stroke-linecap="round"/>
<path d="M318.329 1534.95C318.046 1494.54 316.103 1453.67 309.549 1414.96C303.419 1378.71 292.455 1345.2 280.883 1314.23C255.029 1245.04 224.058 1183.92 196.444 1117.23C183.355 1085.61 170.488 1050.96 164.196 1012.33C160.797 991.478 158.451 970.322 157.986 948.523C157.5 926.647 155.295 905.151 155.154 883.2C155.012 862.348 156.105 841.801 155.478 820.911C154.871 800.666 154.992 780.193 155.437 759.948C155.923 737.276 157.298 714.794 157.662 692.122C158.006 669.944 158.936 647.803 159.806 625.7C163.245 538.274 170.832 449.598 185.277 366.077C188.999 344.543 195.29 323.995 200.651 303.712C205.971 283.657 211.413 263.752 216.997 243.961C227.901 205.291 239.553 167.53 251.55 130.073C273.499 61.5274 298.604 -2.96113 322.071 -69.6867C346.044 -137.853 366.902 -209.659 374.002 -291.133C377.543 -331.661 378.027 -373.402 375.256 -414.196C374.649 -423.257 373.456 -431.9 372.404 -440.772C371.312 -449.871 371.311 -459.349 370.664 -468.562C369.187 -489.262 364.675 -507.459 361.944 -527.363C359.274 -546.812 355.896 -566.072 353.024 -585.483C349.787 -607.32 344.912 -627.793 340.663 -648.91C333.542 -684.358 325.571 -719.238 321.484 -756.543C319.239 -777.016 318.107 -797.943 318.329 -818.871" stroke="white" stroke-opacity="0.1" stroke-miterlimit="10" stroke-linecap="round"/>
<path d="M403.253 1441.19C403.253 1403.05 402.039 1364.04 395.383 1327.72C388.828 1291.97 376.043 1260.31 363.035 1231.91C333.357 1167.12 297.348 1113.97 268.237 1048.11C254.177 1016.31 243.536 982.754 240.461 941.392C238.904 920.54 239.814 901.661 241.17 880.923C242.444 861.587 242.929 842.669 245.741 823.751C247.218 813.855 249.12 804.339 250.455 794.406C251.911 783.563 252.68 772.568 253.914 761.612C256.18 741.48 259.215 721.577 262.795 702.128C270.098 662.433 275.641 621.715 282.863 581.869C290.268 541.113 298.097 500.32 306.492 460.209C314.928 419.908 323.91 378.395 336.513 342.037C361.599 269.738 387.574 198.615 414.156 128.212C439.261 61.7137 468.069 0.712713 492.952 -66.2404C516.702 -130.123 535.496 -205.531 534.262 -284.995C533.958 -303.762 531.975 -323.248 529.002 -341.104C525.987 -359.151 522.67 -377.994 517.633 -394.448C515.286 -402.069 512.494 -408.627 510.734 -416.816C508.914 -425.308 506.809 -433.61 504.26 -441.42C501.833 -448.927 499.041 -455.979 495.966 -462.576C492.142 -470.727 488.805 -478.726 485.265 -487.294C479.176 -502.004 473.43 -517.169 467.3 -531.841C460.199 -548.864 452.087 -564.067 444.541 -580.331C431.412 -608.576 417.11 -635.19 409.301 -670.41C405.457 -687.774 403.333 -706.391 403.272 -725.233" stroke="white" stroke-opacity="0.1" stroke-miterlimit="10" stroke-linecap="round"/>
<path d="M488.18 1347.47C488.261 1308.35 487.41 1267.33 478.631 1231.12C476.891 1223.92 474.767 1217.17 472.359 1210.65C470.66 1205.98 467.868 1201.32 466.574 1196.36C465.967 1194 466.533 1193.55 465.987 1191.5C463.559 1182.48 457.976 1173.95 454.233 1166.75C449.843 1158.29 445.271 1150.22 440.618 1142.25C424.495 1114.69 407.198 1088.53 389.881 1063.81C371.958 1038.19 352.477 1010.55 338.437 977.071C333.258 964.712 328.139 950.608 324.518 936.088C319.906 917.549 318.854 898.819 318.895 878.612C318.955 857.76 323.103 838.956 326.137 819.204C329.05 800.399 333.501 782.732 339.084 766.202C350.555 732.119 359.051 695.23 371.209 661.716C384.601 624.827 395.526 585.664 408.635 548.51C421.683 511.584 433.922 474.012 447.072 437.389C454.435 416.879 461.84 396.368 469.102 375.706C476.163 355.574 484.315 337.491 492.488 318.952C522.813 250.255 553.664 182.657 583.928 113.846C598.838 79.9527 616.134 50.0401 631.266 16.374C637.922 1.58817 644.153 -13.7661 650.586 -28.8931C657.525 -45.1954 663.007 -62.8253 669.36 -79.81C691.876 -139.977 704.114 -231.611 685.664 -300.081C681.153 -316.838 674.821 -332.344 668.449 -346.751C662.582 -360.02 655.057 -369.688 648.765 -382.123C634.402 -410.52 616.195 -426.783 599.242 -448.735C590.988 -459.426 582.755 -470.951 573.651 -481.112C563.273 -492.713 552.754 -503.935 542.376 -515.574C525.666 -534.302 507.742 -552.159 496.656 -583.399C491.578 -597.73 488.463 -614.223 488.099 -631.473" stroke="white" stroke-opacity="0.1" stroke-miterlimit="10" stroke-linecap="round"/>
<path d="M575.531 1262.17C575.875 1227.9 575.915 1191.54 569.078 1159.16C562.017 1125.65 546.562 1099.75 531.693 1078.26C523.257 1066.05 514.477 1054.83 505.556 1043.91C497.99 1034.66 490.221 1023.97 482.21 1017.33C477.476 1013.43 472.945 1006.53 468.576 1001.41C463.336 995.306 458.156 989.05 453.058 982.529C444.258 971.307 435.62 959.327 427.549 946.285C413.448 923.462 399.227 892.904 398.377 856.243C397.973 838.728 399.894 819.659 403.859 803.773C407.683 788.457 411.688 772.571 416.847 758.695C422.714 742.924 429.714 729.352 436.895 715.779C443.875 702.586 449.801 687.724 456.558 674.151C470.658 645.793 486.6 620.883 501.024 593.094C516.135 564.015 531.106 534.558 546.582 505.366C561.977 476.363 577.17 446.829 592.039 416.84C600.01 400.728 607.839 384.349 615.425 367.591C622.89 351.099 631.528 336.503 639.782 321.376C655.015 293.473 670.167 265.419 685.299 237.288C700.249 209.498 715.017 181.368 729.663 153.009C743.824 125.637 758.37 99.3628 772.956 72.7863C799.902 23.7657 826.929 -28.4784 843.74 -92.1711C852.723 -126.178 857.679 -161.778 856.951 -199.917C856.243 -236.048 849.83 -266.68 836.802 -293.408C823.794 -320.098 807.772 -336.439 791.123 -353.423C783.273 -361.423 775.707 -369.498 767.352 -375.715C758.208 -382.54 748.68 -386.824 739.455 -393.079C734.762 -396.264 730.008 -398.918 725.254 -401.762C722.745 -403.24 720.318 -405.022 717.829 -406.652C717.283 -406.994 713.702 -408.701 716.272 -407.563C686.048 -426.368 654.853 -439.711 624.872 -459.994C604.116 -474.022 577.23 -498.969 575.571 -546.132" stroke="white" stroke-opacity="0.1" stroke-miterlimit="10" stroke-linecap="round"/>
<path d="M667.559 1197.03C667.761 1157.57 667.964 1112.98 655.583 1079.01C642.535 1043.22 620.463 1019.91 600.598 999.738C578.729 977.559 555.95 959.133 534.223 936.575C514.64 916.216 492.833 891.688 482.111 853.283C469.932 809.684 483.122 767.298 498.315 733.859C505.719 717.557 514.964 703.681 524.048 690.828C534.385 676.194 544.783 661.522 555.343 647.457C576.827 618.833 599.485 593.242 621.212 565.187C643.687 536.146 666.041 505.853 687.809 474.841C772.613 353.977 852.259 220.601 931.904 88.1359C966.477 30.623 1003.9 -33.2973 1016.97 -119.586C1022.82 -158.218 1021.64 -206.365 1011.13 -242.079C999.958 -280.067 978.716 -305.583 958.001 -322.265C914.223 -357.599 866.602 -365.863 819.85 -376.327C792.762 -382.355 765.472 -387.435 738.667 -396.799C717.932 -404.04 693.554 -413.556 677.815 -442.066C672.05 -452.492 668.065 -465.837 667.599 -481.002" stroke="white" stroke-opacity="0.1" stroke-miterlimit="10" stroke-linecap="round"/>
<path d="M764.501 1170.42C764.501 1129.67 764.704 1082.96 750.664 1049.18C733.286 1007.32 703.427 985.067 678.099 965.163C651.719 944.425 624.388 926.797 599.505 900.031C578.688 877.625 553.442 840.507 558.782 789.439C563.435 744.93 585.344 714.79 604.259 691.095C627.22 662.358 651.921 639.156 676.52 615.878C730.251 565.037 783.679 513.174 834.74 453.234C885.436 393.712 932.754 325.09 980.234 256.999C1023.2 195.392 1066.29 133.481 1107.02 66.6421C1142.17 8.90166 1182.41 -63.7001 1184.25 -157.685C1185.2 -205.833 1175.01 -253.261 1155.89 -285.563C1136.35 -318.622 1110.23 -335.53 1084.96 -346.259C1033.32 -368.211 979.99 -366.013 927.372 -367.037C897.917 -367.606 868.18 -367.908 838.927 -375.073C817.544 -380.305 791.528 -388.04 774.717 -415.716C768.668 -425.687 764.481 -438.993 764.481 -454.385" stroke="white" stroke-opacity="0.1" stroke-miterlimit="10" stroke-linecap="round"/>
<path d="M861.442 1197.04C861.199 1156.13 861.119 1110.52 847.565 1076.17C832.028 1036.78 806.983 1011.11 784.831 986.963C764.196 964.481 742.692 943.668 723.797 916.068C705.529 889.378 686.392 852.829 692.056 805.363C697.174 762.484 718.841 732.042 736.846 707.702C757.217 680.178 779.127 657.165 800.854 633.697C824.523 608.144 848.515 583.387 871.779 556.545C895.064 529.666 916.973 498.88 940.056 471.583C963.583 443.756 984.967 407.209 1005.52 372.178C1026.09 337.109 1048.49 305.68 1069.81 272.203C1088.87 242.252 1107.8 212.225 1125.42 179.279C1134.2 162.863 1142.74 146.069 1151.18 129.008C1155.36 120.516 1159.92 112.82 1164.33 104.745C1169.1 96.0251 1173.03 86.3197 1177.64 77.4103C1208.97 17.2435 1242.66 -58.4679 1243.79 -146.879C1244.36 -190.63 1234.97 -232.941 1219.15 -264.711C1203.05 -297.05 1180.55 -316.992 1158.38 -330.337C1109.85 -359.492 1058.93 -365.748 1008.53 -375.188C982.579 -380.041 956.907 -385.766 931.276 -394.372C910.763 -401.272 886.062 -412.493 870.829 -441.231C865.124 -451.998 861.402 -465.722 861.422 -481.115" stroke="white" stroke-opacity="0.1" stroke-miterlimit="10" stroke-linecap="round"/>
<path d="M953.47 1262.17C953.045 1222.93 953.146 1179.22 942.869 1143.77C931.054 1103.09 910.663 1071.62 892.253 1041.78C875.321 1014.33 858.186 986.166 843.742 953.865C828.852 920.654 816.896 881.111 824.907 836.905C832.028 797.628 851.186 767.792 867.937 742.656C886.73 714.449 906.92 688.783 926.847 663.419C970.483 607.878 1014.38 552.677 1054.46 488.112C1074.61 455.621 1094.01 421.425 1112.3 385.257C1130.12 350.036 1148.71 316.257 1166.53 281.037C1182.53 249.418 1198.07 216.964 1211.93 181.933C1219.17 163.584 1226.11 144.779 1232.48 125.33C1238.31 107.587 1246 92.1189 1252.79 75.5512C1266.33 42.4538 1277.29 7.23343 1287.67 -29.5036C1297.91 -65.7477 1303.89 -111.128 1303.77 -152.111C1303.53 -242.229 1265.15 -306.037 1223.97 -339.172C1180.37 -374.241 1134.28 -390.126 1088.44 -411.053C1063.72 -422.351 1039.16 -433.8 1014.85 -447.751C995.932 -458.632 974.387 -474.366 961.703 -504.355C956.625 -516.335 953.51 -530.743 953.489 -546.173" stroke="white" stroke-opacity="0.1" stroke-miterlimit="10" stroke-linecap="round"/>
<path d="M42.0096 1712C42.0096 1519.37 -8.14046 1338.83 -58.0479 1175.88C-109.493 1007.89 -168.342 846.044 -208.721 667.022C-228.364 579.976 -243.375 487.887 -246.43 393.106C-249.505 297.832 -239.126 203.393 -222.214 113.882C-187.641 -68.8929 -129.48 -232.825 -77.1044 -398.691C-22.5441 -571.533 41.9899 -779.142 41.9899 -996C156.775 -996 266.785 -876.879 359.783 -773.834C448.572 -675.451 536.269 -566.036 634.061 -500.978C681.844 -469.17 732.319 -449.721 783.197 -455.483C834.177 -461.284 883.679 -489.794 930.45 -527.024C1026.2 -603.19 1112.78 -713.932 1202.75 -810.495C1289.15 -903.266 1384.92 -996 1486.98 -996C1486.98 -779.521 1551.27 -572.291 1606.07 -398.691C1658.45 -232.787 1716.61 -68.855 1751.18 113.882C1768.11 203.355 1778.47 297.832 1775.4 393.106C1772.34 487.887 1757.31 579.976 1737.69 667.022C1697.31 846.044 1638.48 1007.89 1587.02 1175.88C1537.11 1338.83 1486.96 1519.41 1486.96 1712C1384.9 1712 1289.13 1619.23 1202.73 1526.49C1112.76 1429.93 1026.18 1319.19 930.431 1243.02C883.639 1205.79 834.156 1177.28 783.176 1171.48C732.278 1165.72 681.824 1185.21 634.04 1216.98C536.248 1282.04 448.552 1391.41 359.763 1489.83C267.898 1591.67 157.3 1712 42.0096 1712Z" stroke="white" stroke-opacity="0.1" stroke-miterlimit="10" stroke-linecap="round"/>
</g>
<defs>
<clipPath id="clip0_1080_5496">
<rect width="2023" height="2708" fill="white" transform="translate(-247 -996)"/>
</clipPath>
</defs>
</svg>
