<svg width="20" height="16" viewBox="0 0 20 16" fill="none" xmlns="http://www.w3.org/2000/svg">
<path d="M3.59653 0.135798C3.50344 0.0493957 3.38139 0.000957599 3.25439 1.40476e-05C3.12739 -0.000929504 3.00463 0.0456898 2.91027 0.130699C2.81591 0.215709 2.75678 0.332954 2.74451 0.459366C2.73224 0.585779 2.76773 0.712206 2.84398 0.813772L4.61349 2.76295C1.45413 4.6189 0.10242 7.59352 0.0439446 7.72657C0.0149717 7.79166 0 7.86211 0 7.93335C0 8.0046 0.0149717 8.07505 0.0439446 8.14013C0.0727586 8.20539 0.777852 9.76897 2.35245 11.3436C3.81348 12.8029 6.32368 14.5428 10 14.5428C11.5366 14.5521 13.0569 14.2268 14.4551 13.5894L16.4043 15.7326C16.4951 15.8324 16.6218 15.892 16.7566 15.8984C16.8914 15.9047 17.0232 15.8573 17.123 15.7665C17.2228 15.6757 17.2824 15.549 17.2888 15.4142C17.2951 15.2794 17.2477 15.1476 17.1569 15.0478L3.59653 0.135798ZM7.71692 6.17994L11.5305 10.3766C10.958 10.7344 10.2779 10.8797 9.60915 10.7873C8.94035 10.6949 8.32525 10.3705 7.87119 9.87084C7.41714 9.37117 7.15296 8.72793 7.12476 8.05336C7.09657 7.3788 7.30615 6.71575 7.71692 6.17994ZM10 13.5258C7.34065 13.5258 5.01858 12.558 3.09737 10.6503C2.29181 9.85011 1.61027 8.93406 1.07531 7.9325C1.43888 7.23758 2.77872 4.95111 5.31265 3.5333L7.02454 5.41552C6.41505 6.13775 6.08867 7.05679 6.10611 8.00166C6.12355 8.94653 6.48362 9.8529 7.11935 10.5521C7.75507 11.2514 8.62315 11.6959 9.5621 11.803C10.501 11.91 11.4469 11.6724 12.2238 11.1342L13.7331 12.7953C12.5498 13.2849 11.2806 13.5333 10 13.5258ZM10.5424 5.10196C10.4099 5.07668 10.2929 4.99979 10.217 4.88822C10.1412 4.77665 10.1129 4.63954 10.1381 4.50704C10.1634 4.37454 10.2403 4.25752 10.3519 4.1817C10.4634 4.10589 10.6006 4.07751 10.7331 4.1028C11.5611 4.26365 12.3149 4.68776 12.8823 5.31192C13.4496 5.93607 13.8001 6.72685 13.8814 7.5664C13.8876 7.6329 13.8806 7.69996 13.8609 7.76376C13.8411 7.82756 13.809 7.88685 13.7664 7.93824C13.7237 7.98963 13.6714 8.03212 13.6123 8.06327C13.5532 8.09442 13.4886 8.11363 13.4221 8.1198H13.3746C13.2475 8.12033 13.1247 8.0732 13.0306 7.98771C12.9365 7.90221 12.8778 7.78455 12.8661 7.65793C12.8057 7.03846 12.5469 6.45506 12.1282 5.99453C11.7095 5.53399 11.1533 5.22095 10.5424 5.10196ZM19.9561 8.14013C19.9213 8.2181 19.0772 10.0893 17.1713 11.7944C17.1218 11.8408 17.0636 11.8767 17.0001 11.9003C16.9365 11.9238 16.8689 11.9344 16.8012 11.9314C16.7335 11.9284 16.6671 11.912 16.6059 11.8829C16.5446 11.8539 16.4898 11.813 16.4446 11.7625C16.3995 11.712 16.3648 11.653 16.3428 11.5889C16.3207 11.5248 16.3117 11.457 16.3162 11.3894C16.3208 11.3218 16.3388 11.2558 16.3692 11.1952C16.3996 11.1347 16.4418 11.0808 16.4933 11.0368C17.4785 10.1516 18.3013 9.10106 18.9247 7.9325C18.3896 6.93102 17.7081 6.01499 16.9026 5.21467C14.9814 3.30702 12.6594 2.33922 10 2.33922C9.441 2.33855 8.88289 2.3839 8.33134 2.47481C8.26492 2.48733 8.19668 2.48648 8.1306 2.47232C8.06452 2.45816 8.00193 2.43097 7.94648 2.39234C7.89103 2.35371 7.84383 2.30441 7.80766 2.24733C7.77148 2.19025 7.74704 2.12653 7.73578 2.05989C7.72451 1.99326 7.72664 1.92504 7.74205 1.85924C7.75745 1.79344 7.78581 1.73137 7.82548 1.67665C7.86515 1.62194 7.91533 1.57569 7.97308 1.54059C8.03084 1.50549 8.09501 1.48226 8.16184 1.47226C8.76935 1.37141 9.38418 1.32123 10 1.32225C13.6763 1.32225 16.1865 3.06295 17.6476 4.52229C19.2221 6.09689 19.9272 7.65793 19.9561 7.72657C19.985 7.79166 20 7.86211 20 7.93335C20 8.0046 19.985 8.07505 19.9561 8.14013Z" fill="#949494"/>
</svg>
