<svg width="20" height="20" viewBox="0 0 20 20" fill="none" xmlns="http://www.w3.org/2000/svg">
<path d="M13.61 3.49953V13.6595C13.61 14.0595 13.49 14.4495 13.27 14.7795L10.54 18.8395C10.11 19.4895 9.04002 19.9495 8.13002 19.6095C7.15002 19.2795 6.50002 18.1795 6.71002 17.1995L7.23002 13.9295C7.27002 13.6295 7.19002 13.3595 7.02002 13.1495C6.85002 12.9595 6.60002 12.8395 6.33002 12.8395H2.22002C1.43002 12.8395 0.750016 12.5195 0.350016 11.9595C-0.0299845 11.4195 -0.0999843 10.7195 0.150016 10.0095L2.61002 2.51953C2.92002 1.27953 4.27002 0.269531 5.61002 0.269531H9.51002C10.18 0.269531 11.12 0.499531 11.55 0.929531L12.83 1.91953C13.32 2.29953 13.61 2.87953 13.61 3.49953Z" fill="#EF443B"/>
<path d="M16.7904 15.6094H17.8204C19.3704 15.6094 20.0004 15.0094 20.0004 13.5294V3.47941C20.0004 1.99941 19.3704 1.39941 17.8204 1.39941H16.7904C15.2404 1.39941 14.6104 1.99941 14.6104 3.47941V13.5394C14.6104 15.0094 15.2404 15.6094 16.7904 15.6094Z" fill="#EF443B"/>
</svg>
