<svg width="22" height="22" viewBox="0 0 22 22" fill="none" xmlns="http://www.w3.org/2000/svg">
<path d="M15.5197 4.65039L12.4197 2.25039C12.0197 1.85039 11.1197 1.65039 10.5197 1.65039H6.71973C5.51973 1.65039 4.21973 2.55039 3.91973 3.75039L1.51973 11.0504C1.01973 12.4504 1.91973 13.6504 3.41973 13.6504H7.41973C8.01973 13.6504 8.51973 14.1504 8.41973 14.8504L7.91973 18.0504C7.71973 18.9504 8.31973 19.9504 9.21973 20.2504C10.0197 20.5504 11.0197 20.1504 11.4197 19.5504L15.5197 13.4504" stroke="#E0E1E5" stroke-width="1.5" stroke-miterlimit="10"/>
<path d="M20.6201 4.65V14.45C20.6201 15.85 20.0201 16.35 18.6201 16.35H17.6201C16.2201 16.35 15.6201 15.85 15.6201 14.45V4.65C15.6201 3.25 16.2201 2.75 17.6201 2.75H18.6201C20.0201 2.75 20.6201 3.25 20.6201 4.65Z" stroke="#E0E1E5" stroke-width="1.5" stroke-linecap="round" stroke-linejoin="round"/>
</svg>
