<svg width="38" height="40" viewBox="0 0 38 40" fill="none" xmlns="http://www.w3.org/2000/svg">
<path d="M36 16.38H30.22C25.48 16.38 21.62 12.52 21.62 7.78V2C21.62 0.9 20.72 0 19.62 0H11.14C4.98 0 0 4 0 11.14V28.86C0 36 4.98 40 11.14 40H26.86C33.02 40 38 36 38 28.86V18.38C38 17.28 37.1 16.38 36 16.38ZM18.06 23.06C17.76 23.36 17.38 23.5 17 23.5C16.62 23.5 16.24 23.36 15.94 23.06L14.5 21.62V30C14.5 30.82 13.82 31.5 13 31.5C12.18 31.5 11.5 30.82 11.5 30V21.62L10.06 23.06C9.48 23.64 8.52 23.64 7.94 23.06C7.36 22.48 7.36 21.52 7.94 20.94L11.94 16.94C12.08 16.82 12.22 16.72 12.38 16.64C12.42 16.62 12.48 16.6 12.52 16.58C12.64 16.54 12.76 16.52 12.9 16.5C12.96 16.5 13 16.5 13.06 16.5C13.22 16.5 13.38 16.54 13.54 16.6C13.56 16.6 13.56 16.6 13.58 16.6C13.74 16.66 13.9 16.78 14.02 16.9C14.04 16.92 14.06 16.92 14.06 16.94L18.06 20.94C18.64 21.52 18.64 22.48 18.06 23.06Z" fill="url(#paint0_linear_743_72)"/>
<path d="M29.86 13.621C31.76 13.641 34.4 13.641 36.66 13.641C37.8 13.641 38.4 12.301 37.6 11.501C34.72 8.60096 29.56 3.38096 26.6 0.420963C25.78 -0.399037 24.36 0.160963 24.36 1.30096V8.28096C24.36 11.201 26.84 13.621 29.86 13.621Z" fill="url(#paint1_linear_743_72)"/>
<defs>
<linearGradient id="paint0_linear_743_72" x1="38" y1="4.57662e-06" x2="-7.13437" y2="11.1685" gradientUnits="userSpaceOnUse">
<stop stop-color="#355BE0"/>
<stop offset="1" stop-color="#B945CC"/>
</linearGradient>
<linearGradient id="paint1_linear_743_72" x1="37.9661" y1="0.0312516" x2="21.9051" y2="4.21365" gradientUnits="userSpaceOnUse">
<stop stop-color="#355BE0"/>
<stop offset="1" stop-color="#B945CC"/>
</linearGradient>
</defs>
</svg>
