<svg width="183" height="102" viewBox="0 0 183 102" fill="none" xmlns="http://www.w3.org/2000/svg">
<g id="Group 34427" opacity="0.2">
<path id="Shadow-1" d="M40.002 102L139.653 64.3984H112.763H86.8763H0L40.002 102Z" fill="#1A1A1A"/>
<g id="Stroke">
<path d="M181.503 21.8907L158.922 88.501L40.9229 100.799L22.4785 2L136.89 4.39605L142.32 23.3881L181.503 21.8907Z" fill="white"/>
<path d="M40.9229 100.799L61.9334 13.1031L105.452 11.7708L110.361 24.6095L142.32 23.3881M40.9229 100.799L158.922 88.501L181.503 21.8907L142.32 23.3881M40.9229 100.799L22.4785 2L136.89 4.39605L142.32 23.3881" stroke="#1A1A1A" stroke-width="2"/>
</g>
<path id="Shadow-2" d="M41.0352 27.8083L41.0352 98.9455L58.331 27.4092L41.0352 27.8083Z" fill="#1A1A1A"/>
<path id="Checkmark" d="M95.1387 53.5715L105.462 71.0022L133.853 44.0195" stroke="#1A1A1A" stroke-width="6"/>
</g>
</svg>
