<svg width="16" height="15" viewBox="0 0 16 15" fill="none" xmlns="http://www.w3.org/2000/svg">
<path d="M15 5.064V1.886C15 0.899 14.552 0.5 13.439 0.5H10.611C9.49805 0.5 9.05005 0.899 9.05005 1.886V5.057C9.05005 6.051 9.49805 6.443 10.611 6.443H13.439C14.552 6.45 15 6.051 15 5.064Z" stroke="white" stroke-linecap="round" stroke-linejoin="round"/>
<path d="M15 12.9393V10.1113C15 8.99829 14.552 8.55029 13.439 8.55029H10.611C9.49805 8.55029 9.05005 8.99829 9.05005 10.1113V12.9393C9.05005 14.0523 9.49805 14.5003 10.611 14.5003H13.439C14.552 14.5003 15 14.0523 15 12.9393Z" stroke="white" stroke-linecap="round" stroke-linejoin="round"/>
<path d="M6.95 5.064V1.886C6.95 0.899 6.502 0.5 5.389 0.5H2.561C1.448 0.5 1 0.899 1 1.886V5.057C1 6.051 1.448 6.443 2.561 6.443H5.389C6.502 6.45 6.95 6.051 6.95 5.064Z" stroke="white" stroke-linecap="round" stroke-linejoin="round"/>
<path d="M6.95 12.9393V10.1113C6.95 8.99829 6.502 8.55029 5.389 8.55029H2.561C1.448 8.55029 1 8.99829 1 10.1113V12.9393C1 14.0523 1.448 14.5003 2.561 14.5003H5.389C6.502 14.5003 6.95 14.0523 6.95 12.9393Z" stroke="white" stroke-linecap="round" stroke-linejoin="round"/>
</svg>
