<svg width="16" height="16" viewBox="0 0 16 16" fill="none" xmlns="http://www.w3.org/2000/svg">
<path d="M16 7.32264V14.7186C16 15.0581 15.8595 15.3837 15.6095 15.6237C15.3594 15.8638 15.0203 15.9986 14.6666 15.9986H11.3333C10.9797 15.9986 10.6406 15.8638 10.3905 15.6237C10.1405 15.3837 9.99999 15.0581 9.99999 14.7186V11.5186C9.99999 11.3489 9.92975 11.1861 9.80473 11.0661C9.6797 10.9461 9.51013 10.8786 9.33332 10.8786H6.66666C6.48985 10.8786 6.32028 10.9461 6.19525 11.0661C6.07023 11.1861 5.99999 11.3489 5.99999 11.5186V14.7186C5.99999 15.0581 5.85952 15.3837 5.60947 15.6237C5.35942 15.8638 5.02028 15.9986 4.66666 15.9986H1.33333C0.97971 15.9986 0.640572 15.8638 0.390524 15.6237C0.140476 15.3837 1.54065e-08 15.0581 1.54065e-08 14.7186V7.32264C-2.80357e-05 7.14549 0.0382493 6.97026 0.112409 6.80804C0.18657 6.64582 0.294998 6.50015 0.430833 6.38024L7.09749 0.341839L7.10666 0.333039C7.35211 0.118746 7.67197 0 8.00374 0C8.33551 0 8.65537 0.118746 8.90082 0.333039C8.90367 0.33617 8.90673 0.33911 8.90999 0.341839L15.5766 6.38024C15.7111 6.50078 15.8182 6.64674 15.891 6.80893C15.9639 6.97111 16.001 7.14602 16 7.32264Z" fill="white"/>
</svg>
