<svg width="16" height="16" viewBox="0 0 16 16" fill="none" xmlns="http://www.w3.org/2000/svg">
<path d="M14.9477 6.38078L8.54713 0.341869C8.544 0.339139 8.54106 0.336198 8.53833 0.333068C8.30267 0.118756 7.99558 0 7.67705 0C7.35852 0 7.05143 0.118756 6.81578 0.333068L6.80698 0.341869L0.413635 6.38078C0.283222 6.5007 0.179122 6.64639 0.107922 6.80862C0.0367225 6.97085 -2.69166e-05 7.1461 1.47915e-08 7.32326V14.7199C1.47915e-08 15.0594 0.134868 15.385 0.374935 15.6251C0.615002 15.8651 0.940603 16 1.28011 16H5.12044C5.45994 16 5.78554 15.8651 6.02561 15.6251C6.26568 15.385 6.40054 15.0594 6.40054 14.7199V10.8796H8.96076V14.7199C8.96076 15.0594 9.09563 15.385 9.3357 15.6251C9.57576 15.8651 9.90137 16 10.2409 16H14.0812C14.4207 16 14.7463 15.8651 14.9864 15.6251C15.2264 15.385 15.3613 15.0594 15.3613 14.7199V7.32326C15.3613 7.1461 15.3246 6.97085 15.2534 6.80862C15.1822 6.64639 15.0781 6.5007 14.9477 6.38078ZM14.0812 14.7199H10.2409V10.8796C10.2409 10.5401 10.106 10.2145 9.86594 9.97439C9.62587 9.73432 9.30027 9.59946 8.96076 9.59946H6.40054C6.06104 9.59946 5.73544 9.73432 5.49537 9.97439C5.2553 10.2145 5.12044 10.5401 5.12044 10.8796V14.7199H1.28011V7.32326L1.28891 7.31526L7.68065 1.27875L14.0732 7.31366L14.082 7.32166L14.0812 14.7199Z" fill="white"/>
</svg>
