<svg width="18" height="18" viewBox="0 0 18 18" fill="none" xmlns="http://www.w3.org/2000/svg">
<path d="M11.5087 8.01587L16.5143 4.98384C17.0184 4.67984 17.1511 4.05583 16.815 3.60782L15.2054 1.43977C14.8694 0.983768 14.1795 0.86377 13.6843 1.16777L8.67871 4.19982L11.5087 8.01587Z" stroke="white" stroke-linecap="round" stroke-linejoin="round"/>
<path d="M8.98211 4.58362L4.75684 7.14355L7.02076 10.2013L11.246 7.64138L8.98211 4.58362Z" stroke="white" stroke-linecap="round" stroke-linejoin="round"/>
<path d="M3.37199 12.12L6.86528 10.008L4.88427 7.33594L1.39097 9.44795C0.984159 9.69596 0.878036 10.192 1.15219 10.56L2.15154 11.904C2.41685 12.264 2.96517 12.36 3.37199 12.12Z" stroke="white" stroke-linecap="round" stroke-linejoin="round"/>
<path d="M8.87321 9.16016L4.90234 17.0003" stroke="white" stroke-linecap="round" stroke-linejoin="round"/>
<path d="M8.82812 9.16016L12.7548 17.0003" stroke="white" stroke-linecap="round" stroke-linejoin="round"/>
</svg>
