<svg width="20" height="20" viewBox="0 0 20 20" fill="none" xmlns="http://www.w3.org/2000/svg">
<path d="M6.38965 16.4897V6.32973C6.38965 5.92973 6.50965 5.53973 6.72965 5.20973L9.45965 1.14973C9.88965 0.499731 10.9596 0.039731 11.8696 0.379731C12.8496 0.709731 13.4996 1.80973 13.2896 2.78973L12.7696 6.05973C12.7296 6.35973 12.8096 6.62973 12.9796 6.83973C13.1496 7.02973 13.3996 7.14973 13.6696 7.14973H17.7796C18.5696 7.14973 19.2496 7.46973 19.6496 8.02973C20.0296 8.56973 20.0996 9.26973 19.8496 9.97973L17.3896 17.4697C17.0796 18.7097 15.7296 19.7197 14.3896 19.7197H10.4896C9.81965 19.7197 8.87965 19.4897 8.44965 19.0597L7.16965 18.0697C6.67965 17.6997 6.38965 17.1097 6.38965 16.4897Z" fill="#1BA64B"/>
<path d="M3.21 4.37988H2.18C0.63 4.37988 0 4.97988 0 6.45988V16.5199C0 17.9999 0.63 18.5999 2.18 18.5999H3.21C4.76 18.5999 5.39 17.9999 5.39 16.5199V6.45988C5.39 4.97988 4.76 4.37988 3.21 4.37988Z" fill="#1BA64B"/>
</svg>
