<svg width="22" height="22" viewBox="0 0 22 22" fill="none" xmlns="http://www.w3.org/2000/svg">
<path d="M6.47949 17.3505L9.57949 19.7505C9.97949 20.1505 10.8795 20.3505 11.4795 20.3505H15.2795C16.4795 20.3505 17.7795 19.4505 18.0795 18.2505L20.4795 10.9505C20.9795 9.55046 20.0795 8.35046 18.5795 8.35046H14.5795C13.9795 8.35046 13.4795 7.85046 13.5795 7.15046L14.0795 3.95046C14.2795 3.05046 13.6795 2.05046 12.7795 1.75046C11.9795 1.45046 10.9795 1.85046 10.5795 2.45046L6.47949 8.55046" stroke="#E0E1E5" stroke-width="1.5" stroke-miterlimit="10"/>
<path d="M1.37988 17.3504V7.55039C1.37988 6.15039 1.97988 5.65039 3.37988 5.65039H4.37988C5.77988 5.65039 6.37988 6.15039 6.37988 7.55039V17.3504C6.37988 18.7504 5.77988 19.2504 4.37988 19.2504H3.37988C1.97988 19.2504 1.37988 18.7504 1.37988 17.3504Z" stroke="#E0E1E5" stroke-width="1.5" stroke-linecap="round" stroke-linejoin="round"/>
</svg>
