<svg width="24" height="24" viewBox="0 0 24 24" fill="none" xmlns="http://www.w3.org/2000/svg">
<path d="M21.2237 2.91671C20.3198 1.99421 19.2411 1.26114 18.0507 0.760346C16.8602 0.259551 15.5819 0.00107645 14.2904 3.21185e-05H14.2537C12.9681 -0.00327273 11.6946 0.248495 10.5069 0.740757C9.31928 1.23302 8.24109 1.95599 7.33478 2.86782L0.513642 9.77785C0.183413 10.1118 -0.00124282 10.5629 6.29621e-06 11.0326C0.00125541 11.5022 0.188308 11.9523 0.520309 12.2845L3.70477 15.469C3.8696 15.6346 4.06563 15.766 4.28151 15.8554C4.4974 15.9448 4.72887 15.9906 4.96255 15.9901H4.97255C5.20792 15.9888 5.4407 15.9408 5.65737 15.8489C5.87405 15.757 6.07031 15.6229 6.23478 15.4545L13.0015 8.52118C13.3319 8.19406 13.7768 8.00863 14.2417 8.00428C14.7067 7.99992 15.155 8.17698 15.4915 8.49784C15.6578 8.6594 15.79 8.85269 15.8803 9.06625C15.9705 9.27982 16.017 9.50932 16.017 9.74118C16.0193 9.98794 15.9728 10.2327 15.8804 10.4615C15.7879 10.6903 15.6512 10.8986 15.4781 11.0745L8.55701 17.7645C8.38796 17.9287 8.25323 18.1248 8.16066 18.3415C8.06808 18.5582 8.0195 18.7911 8.01774 19.0267C8.01599 19.2623 8.06109 19.496 8.15042 19.714C8.23975 19.932 8.37154 20.1301 8.53812 20.2968L11.7226 23.4812C12.0546 23.8112 12.5029 23.9975 12.971 24C13.439 24.0025 13.8893 23.821 14.2248 23.4946L21.0915 16.7779C24.9193 12.9445 24.9782 6.72895 21.2237 2.91671ZM4.96255 14.2101L1.7792 11.0267L4.42366 8.34673L7.59256 11.5156L4.96255 14.2101ZM12.9781 22.2223L9.79146 19.039L12.5004 16.4201L15.6681 19.5912L12.9781 22.2223ZM19.8404 15.5068L16.9393 18.3446L13.7793 15.1868L16.717 12.3456L16.7281 12.3356C17.0689 11.9921 17.3383 11.5845 17.5208 11.1364C17.7033 10.6882 17.7953 10.2084 17.7915 9.72451C17.7895 9.25698 17.6936 8.7946 17.5097 8.36479C17.3257 7.93497 17.0573 7.54646 16.7204 7.22228C16.0453 6.58011 15.1463 6.22662 14.2146 6.237C13.283 6.24737 12.3921 6.62079 11.7315 7.27784L8.83368 10.2423L5.66811 7.08228L8.5959 4.12116C9.33706 3.37572 10.2188 2.78476 11.19 2.38252C12.1612 1.98027 13.2025 1.77473 14.2537 1.77782H14.2837C15.3403 1.77873 16.3862 1.99026 17.3601 2.40006C18.334 2.80985 19.2165 3.40969 19.9559 4.16449C23.0293 7.28339 22.9737 12.3756 19.8404 15.509V15.5068Z" fill="url(#paint0_linear_1118_44025)"/>
<defs>
<linearGradient id="paint0_linear_1118_44025" x1="24.0014" y1="2.74597e-06" x2="-4.32937" y2="7.37988" gradientUnits="userSpaceOnUse">
<stop stop-color="#4FC5EB"/>
<stop offset="1" stop-color="#5D52D9"/>
</linearGradient>
</defs>
</svg>
