<svg width="16" height="16" viewBox="0 0 16 16" fill="none" xmlns="http://www.w3.org/2000/svg">
<path d="M1.02205 9.67583C0.865356 10.6229 1.56589 11.2803 2.42362 11.608C5.71196 12.864 10.288 12.864 13.5764 11.608C14.4341 11.2803 15.1346 10.6229 14.978 9.67583C14.8817 9.09377 14.4055 8.60909 14.0527 8.1358C13.5906 7.50827 13.5447 6.8238 13.5446 6.09559C13.5446 3.28137 11.0622 1 8 1C4.93778 1 2.45536 3.28137 2.45536 6.09559C2.45529 6.8238 2.40938 7.50827 1.94729 8.1358C1.59451 8.60909 1.11835 9.09377 1.02205 9.67583Z" stroke="white" stroke-linecap="round" stroke-linejoin="round"/>
<path d="M5.78906 14.2998C6.37569 14.7351 7.15036 14.9998 7.99959 14.9998C8.84882 14.9998 9.62349 14.7351 10.2101 14.2998" stroke="white" stroke-linecap="round" stroke-linejoin="round"/>
</svg>
