<svg width="3" height="16" viewBox="0 0 3 16" fill="none" xmlns="http://www.w3.org/2000/svg">
<path d="M2.4 8C2.4 8.23734 2.32962 8.46935 2.19776 8.66668C2.06591 8.86402 1.87849 9.01783 1.65922 9.10865C1.43995 9.19948 1.19867 9.22324 0.965892 9.17694C0.733115 9.13064 0.519295 9.01635 0.351472 8.84853C0.183649 8.68071 0.0693605 8.46689 0.0230582 8.23411C-0.0232441 8.00133 0.000519943 7.76005 0.0913451 7.54078C0.18217 7.32151 0.335978 7.13409 0.533317 7.00224C0.730656 6.87038 0.962663 6.8 1.2 6.8C1.51826 6.8 1.82348 6.92643 2.04853 7.15147C2.27357 7.37652 2.4 7.68174 2.4 8ZM1.2 2.4C1.43734 2.4 1.66935 2.32962 1.86668 2.19776C2.06402 2.06591 2.21783 1.87849 2.30866 1.65922C2.39948 1.43995 2.42324 1.19867 2.37694 0.965892C2.33064 0.733115 2.21635 0.519295 2.04853 0.351472C1.8807 0.183649 1.66689 0.0693605 1.43411 0.0230582C1.20133 -0.0232441 0.960052 0.000519943 0.74078 0.0913451C0.521509 0.18217 0.334094 0.335977 0.202237 0.533316C0.0703791 0.730655 6.47336e-07 0.962663 6.47336e-07 1.2C6.47336e-07 1.51826 0.126429 1.82349 0.351472 2.04853C0.576516 2.27357 0.881741 2.4 1.2 2.4ZM1.2 13.6C0.962663 13.6 0.730656 13.6704 0.533317 13.8022C0.335978 13.9341 0.18217 14.1215 0.0913451 14.3408C0.000519943 14.5601 -0.0232441 14.8013 0.0230582 15.0341C0.0693605 15.2669 0.183649 15.4807 0.351472 15.6485C0.519295 15.8163 0.733115 15.9306 0.965892 15.9769C1.19867 16.0232 1.43995 15.9995 1.65922 15.9087C1.87849 15.8178 2.06591 15.664 2.19776 15.4667C2.32962 15.2693 2.4 15.0373 2.4 14.8C2.4 14.4817 2.27357 14.1765 2.04853 13.9515C1.82348 13.7264 1.51826 13.6 1.2 13.6Z" fill="white"/>
</svg>
