<svg width="20" height="20" viewBox="0 0 20 20" fill="none" xmlns="http://www.w3.org/2000/svg">
<path d="M19.4118 7.05882H16.8627V1.96078H19.4118C19.5678 1.96078 19.7174 1.89881 19.8277 1.78849C19.938 1.67818 20 1.52856 20 1.37255C20 1.21654 19.938 1.06692 19.8277 0.956604C19.7174 0.846288 19.5678 0.784314 19.4118 0.784314H16.7284C16.6173 0.549928 16.4419 0.351848 16.2228 0.213034C16.0036 0.0742192 15.7496 0.000354232 15.4902 0H13.9216C13.6622 0.000354232 13.4081 0.0742192 13.189 0.213034C12.9698 0.351848 12.7945 0.549928 12.6833 0.784314H10.7843C8.1331 0.787427 5.59137 1.842 3.71669 3.71669C1.842 5.59137 0.787427 8.1331 0.784314 10.7843V12.6833C0.549928 12.7945 0.351848 12.9698 0.213034 13.189C0.0742192 13.4081 0.000354232 13.6622 0 13.9216V15.4902C0.000354232 15.7496 0.0742192 16.0036 0.213034 16.2228C0.351848 16.4419 0.549928 16.6173 0.784314 16.7284V19.4118C0.784314 19.5678 0.846288 19.7174 0.956604 19.8277C1.06692 19.938 1.21654 20 1.37255 20C1.52856 20 1.67818 19.938 1.78849 19.8277C1.89881 19.7174 1.96078 19.5678 1.96078 19.4118V16.8627H7.05882V19.4118C7.05882 19.5678 7.1208 19.7174 7.23111 19.8277C7.34143 19.938 7.49105 20 7.64706 20C7.80307 20 7.95269 19.938 8.063 19.8277C8.17332 19.7174 8.23529 19.5678 8.23529 19.4118V16.7284C8.46968 16.6173 8.66776 16.4419 8.80657 16.2228C8.94539 16.0036 9.01925 15.7496 9.01961 15.4902V13.9216C9.01925 13.6622 8.94539 13.4081 8.80657 13.189C8.66776 12.9698 8.46968 12.7945 8.23529 12.6833V10.7843C8.23529 10.1083 8.50385 9.45992 8.98189 8.98189C9.45992 8.50385 10.1083 8.23529 10.7843 8.23529H12.6833C12.7945 8.46968 12.9698 8.66776 13.189 8.80657C13.4081 8.94539 13.6622 9.01925 13.9216 9.01961H15.4902C15.7496 9.01925 16.0036 8.94539 16.2228 8.80657C16.4419 8.66776 16.6173 8.46968 16.7284 8.23529H19.4118C19.5678 8.23529 19.7174 8.17332 19.8277 8.063C19.938 7.95269 20 7.80307 20 7.64706C20 7.49105 19.938 7.34143 19.8277 7.23111C19.7174 7.1208 19.5678 7.05882 19.4118 7.05882ZM7.64706 13.7255C7.69906 13.7255 7.74894 13.7461 7.78571 13.7829C7.82248 13.8197 7.84314 13.8696 7.84314 13.9216V15.4902C7.84314 15.5422 7.82248 15.5921 7.78571 15.6288C7.74894 15.6656 7.69906 15.6863 7.64706 15.6863H1.37255C1.32055 15.6863 1.27067 15.6656 1.2339 15.6288C1.19713 15.5921 1.17647 15.5422 1.17647 15.4902V13.9216C1.17647 13.8696 1.19713 13.8197 1.2339 13.7829C1.27067 13.7461 1.32055 13.7255 1.37255 13.7255H7.64706ZM7.05882 10.7843V12.549H1.96078V10.7843C1.96338 8.44496 2.89383 6.20217 4.548 4.548C6.20217 2.89383 8.44496 1.96338 10.7843 1.96078H12.549V7.05882H10.7843C9.79625 7.05882 8.84866 7.45133 8.14999 8.14999C7.45133 8.84866 7.05882 9.79625 7.05882 10.7843ZM15.4902 7.84314H13.9216C13.8696 7.84314 13.8197 7.82248 13.7829 7.78571C13.7461 7.74894 13.7255 7.69906 13.7255 7.64706V1.37255C13.7255 1.32055 13.7461 1.27067 13.7829 1.2339C13.8197 1.19713 13.8696 1.17647 13.9216 1.17647H15.4902C15.5422 1.17647 15.5921 1.19713 15.6288 1.2339C15.6656 1.27067 15.6863 1.32055 15.6863 1.37255V7.64706C15.6863 7.69906 15.6656 7.74894 15.6288 7.78571C15.5921 7.82248 15.5422 7.84314 15.4902 7.84314Z" fill="white"/>
</svg>
