<svg width="217" height="171" viewBox="0 0 217 171" fill="none" xmlns="http://www.w3.org/2000/svg">
<g opacity="0.3">
<g filter="url(#filter0_d_1112_43622)">
<path d="M63.2064 68.2485L193.206 34.2215C194.483 33.8873 195.891 34.156 197.12 34.9686C198.35 35.7813 199.3 37.0712 199.762 38.5546L208.468 66.5217C208.93 68.0051 208.866 69.5606 208.289 70.8459C207.713 72.1312 206.672 73.0411 205.395 73.3753L75.3953 107.402C74.1184 107.737 72.7103 107.468 71.4808 106.655C70.2513 105.843 69.3011 104.553 68.8393 103.069L60.1329 75.1022C59.6711 73.6187 59.7354 72.0632 60.3118 70.7779C60.8882 69.4926 61.9294 68.5828 63.2064 68.2485V68.2485Z" fill="white"/>
</g>
<path d="M137.603 59.492L112.496 66.1139C110.896 66.5358 110.073 68.4118 110.658 70.304C111.244 72.1961 113.015 73.3879 114.615 72.9659L139.722 66.344C141.322 65.9221 142.145 64.0461 141.559 62.1539C140.974 60.2618 139.203 59.07 137.603 59.492Z" fill="#D0D5DD"/>
<path d="M158.852 67.2619L116.159 78.77C114.551 79.2034 113.725 81.1277 114.314 83.0682C114.903 85.0086 116.683 86.2304 118.291 85.797L160.984 74.2889C162.592 73.8556 163.418 71.9312 162.829 69.9908C162.24 68.0503 160.459 66.8286 158.852 67.2619Z" fill="#EAECF0"/>
<path d="M96.4847 92.6938C101.267 91.5298 103.661 86.1195 101.833 80.6097C100.004 75.0999 94.6446 71.5769 89.8623 72.7409C85.08 73.905 82.6856 79.3152 84.5143 84.8251C86.343 90.3349 91.7023 93.8579 96.4847 92.6938Z" fill="#98A2B3"/>
<path d="M90.6677 85.358L89.8757 85.5508L90.0533 80.29L90.9153 80.0801L94.297 84.4744L93.5049 84.6672L90.7958 81.0569L90.7572 81.0664L90.6677 85.358ZM90.1732 83.4352L92.7424 82.8097L92.9458 83.4225L90.3765 84.0481L90.1732 83.4352ZM95.0111 84.3005L93.4091 79.473L95.2201 79.032C95.5711 78.9466 95.8804 78.9324 96.1481 78.9895C96.4154 79.045 96.6379 79.1548 96.8159 79.3187C96.9933 79.481 97.1216 79.6816 97.2008 79.9204C97.2676 80.1216 97.2861 80.3005 97.2563 80.4572C97.226 80.6124 97.1611 80.747 97.0616 80.8613C96.9631 80.9736 96.8445 81.067 96.7057 81.1416L96.7213 81.1887C96.8882 81.1566 97.0655 81.1695 97.2535 81.2273C97.4425 81.2832 97.6175 81.3858 97.7784 81.5351C97.9393 81.6845 98.0613 81.8841 98.1442 82.134C98.2261 82.3807 98.24 82.6168 98.1861 82.8422C98.1332 83.0657 98.0027 83.2647 97.7945 83.4394C97.5857 83.6125 97.2898 83.7457 96.9066 83.839L95.0111 84.3005ZM95.55 83.4942L96.6269 83.232C96.9843 83.145 97.2178 83.0151 97.3275 82.8423C97.4372 82.6696 97.4584 82.4818 97.3911 82.2791C97.3406 82.1267 97.2547 81.9964 97.1336 81.8883C97.0125 81.7802 96.8661 81.7063 96.6946 81.6665C96.5247 81.6264 96.3399 81.6306 96.1403 81.6792L95.0368 81.9479L95.55 83.4942ZM94.8483 81.3798L95.848 81.1364C96.0154 81.0956 96.1555 81.0276 96.2682 80.9322C96.3826 80.8364 96.4604 80.7223 96.5018 80.59C96.5442 80.4557 96.5396 80.3107 96.488 80.1551C96.4217 79.9556 96.2946 79.8056 96.1065 79.7054C95.9183 79.6051 95.6762 79.591 95.38 79.6632L94.361 79.9112L94.8483 81.3798Z" fill="white"/>
<g filter="url(#filter1_d_1112_43622)">
<path d="M33.1761 122.944L163.175 88.9168C164.452 88.5826 165.861 88.8513 167.09 89.6639C168.32 90.4766 169.27 91.7665 169.732 93.25L178.438 121.217C178.9 122.7 178.835 124.256 178.259 125.541C177.683 126.827 176.641 127.736 175.364 128.071L45.3651 162.098C44.0881 162.432 42.68 162.163 41.4505 161.351C40.221 160.538 39.2708 159.248 38.809 157.765L30.1026 129.798C29.6408 128.314 29.7052 126.759 30.2816 125.473C30.858 124.188 31.8992 123.278 33.1761 122.944V122.944Z" fill="white"/>
</g>
<path d="M107.572 114.188L82.4653 120.81C80.8654 121.232 80.0428 123.108 80.6281 125C81.2134 126.892 82.9849 128.084 84.5849 127.662L109.692 121.04C111.292 120.618 112.114 118.742 111.529 116.85C110.944 114.958 109.172 113.766 107.572 114.188Z" fill="#D0D5DD"/>
<path d="M128.822 121.958L86.1287 133.466C84.521 133.9 83.6951 135.824 84.2839 137.764C84.8727 139.705 86.6532 140.927 88.2608 140.493L130.954 128.985C132.561 128.552 133.387 126.628 132.799 124.687C132.21 122.747 130.429 121.525 128.822 121.958Z" fill="#EAECF0"/>
<path d="M53.7694 151.109C58.5277 149.964 60.8831 144.553 59.0303 139.025C57.1775 133.496 51.8182 129.942 47.06 131.088C42.3017 132.233 39.9463 137.643 41.7991 143.172C43.6518 148.7 49.0111 152.254 53.7694 151.109Z" fill="#98A2B3"/>
<path d="M49.0052 139.625C48.9054 139.408 48.7418 139.261 48.5144 139.184C48.2865 139.105 48.0309 139.1 47.7475 139.169C47.5447 139.218 47.3797 139.293 47.2524 139.391C47.1247 139.489 47.0377 139.602 46.9916 139.73C46.9466 139.857 46.9467 139.988 46.9921 140.125C47.0302 140.24 47.0904 140.332 47.1728 140.402C47.2568 140.471 47.3532 140.524 47.4621 140.558C47.5721 140.591 47.6857 140.613 47.8029 140.626C47.9195 140.636 48.03 140.642 48.1344 140.642L48.658 140.647C48.8283 140.646 49.007 140.658 49.1942 140.682C49.3814 140.706 49.5633 140.753 49.7399 140.824C49.9165 140.895 50.0741 140.997 50.2127 141.132C50.3528 141.266 50.4589 141.441 50.5308 141.658C50.6216 141.931 50.6297 142.192 50.5552 142.439C50.4824 142.686 50.3294 142.904 50.0964 143.094C49.8651 143.283 49.5562 143.424 49.1698 143.518C48.7996 143.608 48.4602 143.629 48.1517 143.58C47.8432 143.531 47.5775 143.42 47.3547 143.247C47.1314 143.072 46.9634 142.841 46.8509 142.554L47.5994 142.372C47.6718 142.543 47.778 142.674 47.918 142.766C48.0591 142.855 48.2187 142.909 48.3968 142.927C48.5761 142.942 48.7615 142.927 48.953 142.88C49.1639 142.829 49.3408 142.751 49.4836 142.647C49.6275 142.54 49.7276 142.417 49.784 142.278C49.8399 142.137 49.8418 141.988 49.7896 141.831C49.7422 141.688 49.6614 141.581 49.5475 141.51C49.4351 141.439 49.2982 141.391 49.1368 141.366C48.9769 141.34 48.8009 141.326 48.6087 141.324L47.9727 141.31C47.5417 141.301 47.1765 141.223 46.8769 141.075C46.5789 140.927 46.3741 140.685 46.2625 140.348C46.1702 140.07 46.1669 139.809 46.2526 139.564C46.3383 139.318 46.4941 139.106 46.72 138.927C46.9455 138.747 47.224 138.616 47.5556 138.535C47.8904 138.454 48.2049 138.439 48.4989 138.492C48.7945 138.544 49.0498 138.652 49.2646 138.817C49.4789 138.981 49.6323 139.192 49.7248 139.449L49.0052 139.625ZM53.3813 138.559C53.2814 138.342 53.1178 138.195 52.8904 138.118C52.6625 138.039 52.4069 138.035 52.1235 138.104C51.9207 138.153 51.7557 138.227 51.6284 138.326C51.5007 138.423 51.4137 138.536 51.3676 138.665C51.3226 138.791 51.3228 138.923 51.3681 139.059C51.4062 139.174 51.4664 139.266 51.5488 139.336C51.6328 139.406 51.7292 139.458 51.8381 139.493C51.9481 139.525 52.0617 139.548 52.1789 139.56C52.2955 139.571 52.406 139.576 52.5104 139.576L53.0341 139.581C53.2043 139.58 53.3831 139.592 53.5702 139.616C53.7574 139.64 53.9393 139.688 54.1159 139.758C54.2925 139.829 54.4501 139.932 54.5887 140.066C54.7288 140.2 54.8349 140.376 54.9069 140.593C54.9976 140.866 55.0057 141.126 54.9312 141.374C54.8584 141.621 54.7054 141.839 54.4725 142.028C54.2411 142.217 53.9322 142.359 53.5459 142.453C53.1756 142.543 52.8362 142.563 52.5277 142.514C52.2192 142.466 51.9535 142.355 51.7307 142.181C51.5074 142.006 51.3395 141.775 51.2269 141.489L51.9754 141.306C52.0478 141.477 52.154 141.608 52.294 141.7C52.4351 141.79 52.5947 141.843 52.7729 141.861C52.9521 141.877 53.1375 141.862 53.329 141.815C53.5399 141.764 53.7168 141.686 53.8596 141.581C54.0035 141.475 54.1037 141.352 54.16 141.213C54.2159 141.072 54.2178 140.923 54.1656 140.765C54.1182 140.622 54.0375 140.516 53.9235 140.445C53.8112 140.374 53.6742 140.325 53.5128 140.3C53.3529 140.275 53.1769 140.261 52.9847 140.258L52.3487 140.245C51.9177 140.236 51.5525 140.158 51.2529 140.01C50.9549 139.861 50.7501 139.619 50.6385 139.283C50.5462 139.005 50.5429 138.743 50.6286 138.498C50.7143 138.253 50.8701 138.041 51.096 137.862C51.3215 137.681 51.6 137.551 51.9316 137.47C52.2664 137.389 52.5809 137.374 52.8749 137.426C53.1705 137.478 53.4258 137.587 53.6406 137.752C53.8549 137.916 54.0083 138.126 54.1008 138.384L53.3813 138.559Z" fill="white"/>
<g filter="url(#filter2_d_1112_43622)">
<path d="M139.024 3.90217L9.02475 37.9292C6.36562 38.6252 4.98956 41.6937 5.95124 44.7829L14.6576 72.7499C15.6193 75.839 18.5546 77.779 21.2137 77.083L151.213 43.056C153.872 42.36 155.248 39.2915 154.287 36.2023L145.58 8.23531C144.619 5.14616 141.683 3.20615 139.024 3.90217Z" fill="white"/>
</g>
<path d="M81.4649 29.74L56.3579 36.3619C54.758 36.7839 53.9354 38.6599 54.5207 40.552C55.106 42.4442 56.8775 43.636 58.4774 43.214L83.5845 36.5921C85.1844 36.1701 86.007 34.2941 85.4217 32.402C84.8364 30.5098 83.0649 29.318 81.4649 29.74Z" fill="#D0D5DD"/>
<path d="M102.714 37.51L60.0212 49.0181C58.4136 49.4514 57.5877 51.3758 58.1764 53.3162C58.7652 55.2567 60.5458 56.4784 62.1534 56.0451L104.846 44.537C106.454 44.1036 107.28 42.1793 106.691 40.2388C106.102 38.2984 104.322 37.0766 102.714 37.51Z" fill="#EAECF0"/>
<path d="M42.303 62.3745C47.0853 61.2104 49.4797 55.8002 47.651 50.2904C45.8222 44.7805 40.4629 41.2576 35.6806 42.4216C30.8983 43.5857 28.504 48.9959 30.3327 54.5057C32.1614 60.0156 37.5207 63.5385 42.303 62.3745Z" fill="#98A2B3"/>
<path d="M36.4766 50.9872L35.6845 51.18L35.8622 45.9191L36.7242 45.7093L40.1058 50.1035L39.3138 50.2964L36.6047 46.6861L36.5661 46.6955L36.4766 50.9872ZM35.982 49.0643L38.5512 48.4388L38.7546 49.0517L36.1854 49.6772L35.982 49.0643ZM38.994 58.5733L38.202 58.7662L38.3796 53.5053L39.2416 53.2954L42.6232 57.6897L41.8312 57.8825L39.1221 54.2723L39.0835 54.2817L38.994 58.5733ZM38.4994 56.6505L41.0687 56.025L41.272 56.6379L38.7028 57.2634L38.4994 56.6505Z" fill="white"/>
</g>
<defs>
<filter id="filter0_d_1112_43622" x="57.8281" y="32.0811" width="158.945" height="83.4619" filterUnits="userSpaceOnUse" color-interpolation-filters="sRGB">
<feFlood flood-opacity="0" result="BackgroundImageFix"/>
<feColorMatrix in="SourceAlpha" type="matrix" values="0 0 0 0 0 0 0 0 0 0 0 0 0 0 0 0 0 0 127 0" result="hardAlpha"/>
<feOffset dx="3" dy="3"/>
<feGaussianBlur stdDeviation="2.5"/>
<feColorMatrix type="matrix" values="0 0 0 0 0.230539 0 0 0 0 0.370572 0 0 0 0 0.482993 0 0 0 0.1 0"/>
<feBlend mode="normal" in2="BackgroundImageFix" result="effect1_dropShadow_1112_43622"/>
<feBlend mode="normal" in="SourceGraphic" in2="effect1_dropShadow_1112_43622" result="shape"/>
</filter>
<filter id="filter1_d_1112_43622" x="24.7979" y="86.7764" width="158.945" height="83.4619" filterUnits="userSpaceOnUse" color-interpolation-filters="sRGB">
<feFlood flood-opacity="0" result="BackgroundImageFix"/>
<feColorMatrix in="SourceAlpha" type="matrix" values="0 0 0 0 0 0 0 0 0 0 0 0 0 0 0 0 0 0 127 0" result="hardAlpha"/>
<feOffset dy="3"/>
<feGaussianBlur stdDeviation="2.5"/>
<feColorMatrix type="matrix" values="0 0 0 0 0.230539 0 0 0 0 0.370572 0 0 0 0 0.482993 0 0 0 0.1 0"/>
<feBlend mode="normal" in2="BackgroundImageFix" result="effect1_dropShadow_1112_43622"/>
<feBlend mode="normal" in="SourceGraphic" in2="effect1_dropShadow_1112_43622" result="shape"/>
</filter>
<filter id="filter2_d_1112_43622" x="0.644531" y="1.76074" width="158.948" height="83.4639" filterUnits="userSpaceOnUse" color-interpolation-filters="sRGB">
<feFlood flood-opacity="0" result="BackgroundImageFix"/>
<feColorMatrix in="SourceAlpha" type="matrix" values="0 0 0 0 0 0 0 0 0 0 0 0 0 0 0 0 0 0 127 0" result="hardAlpha"/>
<feOffset dy="3"/>
<feGaussianBlur stdDeviation="2.5"/>
<feColorMatrix type="matrix" values="0 0 0 0 0.230539 0 0 0 0 0.370572 0 0 0 0 0.482993 0 0 0 0.1 0"/>
<feBlend mode="normal" in2="BackgroundImageFix" result="effect1_dropShadow_1112_43622"/>
<feBlend mode="normal" in="SourceGraphic" in2="effect1_dropShadow_1112_43622" result="shape"/>
</filter>
</defs>
</svg>
