<svg width="26" height="26" viewBox="0 0 26 26" fill="none" xmlns="http://www.w3.org/2000/svg">
<path d="M6.64001 20.2H3.58003C1.86403 20.2 1 19.336 1 17.62V3.58003C1 1.86403 1.86403 1 3.58003 1H8.74001C10.456 1 11.32 1.86403 11.32 3.58003V5.8" stroke="white" stroke-width="1.5" stroke-miterlimit="10" stroke-linecap="round" stroke-linejoin="round"/>
<path d="M19.4436 8.70378V22.0958C19.4436 24.0278 18.4837 24.9998 16.5517 24.9998H9.54363C7.61163 24.9998 6.63965 24.0278 6.63965 22.0958V8.70378C6.63965 6.77178 7.61163 5.7998 9.54363 5.7998H16.5517C18.4837 5.7998 19.4436 6.77178 19.4436 8.70378Z" stroke="white" stroke-width="1.5" stroke-miterlimit="10" stroke-linecap="round" stroke-linejoin="round"/>
<path d="M14.6797 5.8V3.58003C14.6797 1.86403 15.5436 1 17.2596 1H22.4196C24.1356 1 24.9997 1.86403 24.9997 3.58003V17.62C24.9997 19.336 24.1356 20.2 22.4196 20.2H19.4437" stroke="white" stroke-width="1.5" stroke-miterlimit="10" stroke-linecap="round" stroke-linejoin="round"/>
<path d="M10.5996 11.7998H15.3996" stroke="white" stroke-width="1.5" stroke-miterlimit="10" stroke-linecap="round" stroke-linejoin="round"/>
<path d="M10.5996 15.4004H15.3996" stroke="white" stroke-width="1.5" stroke-miterlimit="10" stroke-linecap="round" stroke-linejoin="round"/>
<path d="M13 25.0004V21.4004" stroke="white" stroke-width="1.5" stroke-miterlimit="10" stroke-linecap="round" stroke-linejoin="round"/>
</svg>
