<svg width="21" height="20" viewBox="0 0 21 20" fill="none" xmlns="http://www.w3.org/2000/svg">
<path d="M6.90932 2.59875C6.10932 -0.861249 0.899322 -0.871249 0.0993218 2.59875C-0.370678 4.62875 0.919322 6.34875 2.03932 7.41875C2.85932 8.18875 4.14932 8.18875 4.96932 7.41875C6.08932 6.34875 7.36932 4.62875 6.90932 2.59875ZM3.53932 4.19875C2.98932 4.19875 2.53932 3.74875 2.53932 3.19875C2.53932 2.64875 2.97932 2.19875 3.52932 2.19875H3.53932C4.09932 2.19875 4.53932 2.64875 4.53932 3.19875C4.53932 3.74875 4.09932 4.19875 3.53932 4.19875Z" fill="url(#paint0_linear_1118_44017)"/>
<path d="M19.9393 14.5988C19.1393 11.1388 13.9093 11.1288 13.0993 14.5988C12.6293 16.6288 13.9193 18.3488 15.0493 19.4188C15.8693 20.1888 17.1693 20.1888 17.9893 19.4188C19.1193 18.3488 20.4093 16.6288 19.9393 14.5988ZM16.5593 16.1988C16.0093 16.1988 15.5593 15.7488 15.5593 15.1988C15.5593 14.6488 15.9993 14.1988 16.5493 14.1988H16.5593C17.1093 14.1988 17.5593 14.6488 17.5593 15.1988C17.5593 15.7488 17.1093 16.1988 16.5593 16.1988Z" fill="url(#paint1_linear_1118_44017)"/>
<path d="M10.0297 17.749H7.34973C6.18973 17.749 5.17973 17.049 4.77973 15.969C4.36973 14.889 4.66973 13.699 5.53973 12.929L13.5297 5.93902C14.0097 5.51902 14.0197 4.94902 13.8797 4.55902C13.7297 4.16902 13.3497 3.74902 12.7097 3.74902H10.0297C9.61973 3.74902 9.27973 3.40902 9.27973 2.99902C9.27973 2.58902 9.61973 2.24902 10.0297 2.24902H12.7097C13.8697 2.24902 14.8797 2.94902 15.2797 4.02902C15.6897 5.10902 15.3897 6.29902 14.5197 7.06902L6.52973 14.059C6.04973 14.479 6.03973 15.049 6.17973 15.439C6.32973 15.829 6.70973 16.249 7.34973 16.249H10.0297C10.4397 16.249 10.7797 16.589 10.7797 16.999C10.7797 17.409 10.4397 17.749 10.0297 17.749Z" fill="url(#paint2_linear_1118_44017)"/>
<defs>
<linearGradient id="paint0_linear_1118_44017" x1="7.00548" y1="9.14896e-07" x2="-1.38767" y2="1.91532" gradientUnits="userSpaceOnUse">
<stop stop-color="#355BE0"/>
<stop offset="1" stop-color="#B945CC"/>
</linearGradient>
<linearGradient id="paint1_linear_1118_44017" x1="20.0386" y1="12" x2="11.6097" y2="13.9326" gradientUnits="userSpaceOnUse">
<stop stop-color="#355BE0"/>
<stop offset="1" stop-color="#B945CC"/>
</linearGradient>
<linearGradient id="paint2_linear_1118_44017" x1="15.4608" y1="2.24903" x2="2.2108" y2="4.66764" gradientUnits="userSpaceOnUse">
<stop stop-color="#355BE0"/>
<stop offset="1" stop-color="#B945CC"/>
</linearGradient>
</defs>
</svg>
