<svg width="21" height="21" viewBox="0 0 21 21" fill="none" xmlns="http://www.w3.org/2000/svg">
<path d="M19.6117 6.20745H14.2926V0.888298C14.2926 0.719011 14.2253 0.556657 14.1056 0.436953C13.9859 0.317249 13.8235 0.25 13.6543 0.25H0.888298C0.719011 0.25 0.556657 0.317249 0.436953 0.436953C0.317249 0.556657 0.25 0.719011 0.25 0.888298V13.6543C0.25 13.8235 0.317249 13.9859 0.436953 14.1056C0.556657 14.2253 0.719011 14.2926 0.888298 14.2926H6.20745V19.6117C6.20745 19.781 6.2747 19.9433 6.3944 20.063C6.5141 20.1828 6.67646 20.25 6.84574 20.25H19.6117C19.781 20.25 19.9433 20.1828 20.063 20.063C20.1828 19.9433 20.25 19.781 20.25 19.6117V6.84574C20.25 6.67646 20.1828 6.5141 20.063 6.3944C19.9433 6.2747 19.781 6.20745 19.6117 6.20745ZM13.9181 18.9734L9.23723 14.2926H13.3862L18.067 18.9734H13.9181ZM1.5266 2.42872L6.20745 7.10957V11.2585L1.5266 6.57766V2.42872ZM6.58191 1.5266L11.2628 6.20745H7.11383L2.43298 1.5266H6.58191ZM7.48404 13.016V7.48404H13.016V13.016H7.48404ZM14.2926 13.3904V9.24149L18.9734 13.9223V18.0713L14.2926 13.3904ZM18.9734 12.1138L14.3436 7.48404H18.9734V12.1138ZM13.016 6.15638L8.38617 1.5266H13.016V6.15638ZM1.5266 8.39043L6.15638 13.016H1.5266V8.39043ZM7.48404 14.3479L12.1138 18.9734H7.48404V14.3479Z" fill="white"/>
</svg>
