<svg width="22" height="18" viewBox="0 0 22 18" fill="none" xmlns="http://www.w3.org/2000/svg">
<path d="M1 10.1998L3.5 8.69977C5.04 7.77977 6.96 7.77977 8.5 8.69977C10.04 9.61977 11.96 9.61977 13.5 8.69977C15.04 7.77977 16.96 7.77977 18.5 8.69977L21 10.1998" stroke="white" stroke-width="1.5" stroke-miterlimit="10" stroke-linecap="round" stroke-linejoin="round"/>
<path d="M1 1L3.5 2.5C5.04 3.42 6.96 3.42 8.5 2.5C10.04 1.58 11.96 1.58 13.5 2.5C15.04 3.42 16.96 3.42 18.5 2.5L21 1" stroke="white" stroke-width="1.5" stroke-miterlimit="10" stroke-linecap="round" stroke-linejoin="round"/>
<path d="M1 17.1998L3.5 15.6998C5.04 14.7798 6.96 14.7798 8.5 15.6998C10.04 16.6198 11.96 16.6198 13.5 15.6998C15.04 14.7798 16.96 14.7798 18.5 15.6998L21 17.1998" stroke="white" stroke-width="1.5" stroke-miterlimit="10" stroke-linecap="round" stroke-linejoin="round"/>
</svg>
