<svg width="20" height="18" viewBox="0 0 20 18" fill="none" xmlns="http://www.w3.org/2000/svg">
<path d="M1 5.43808V14.4192C1 16.1729 2.24609 16.8929 3.75987 16.0253L5.92899 14.7884C6.39974 14.5207 7.18432 14.493 7.67352 14.7422L12.5194 17.1698C13.0087 17.4098 13.7932 17.3913 14.264 17.1237L18.2607 14.8345C18.7684 14.5392 19.193 13.8192 19.193 13.2285V4.24737C19.193 2.49361 17.9469 1.77364 16.4331 2.64129L14.264 3.87815C13.7932 4.14583 13.0087 4.17352 12.5194 3.92431L7.67352 1.50596C7.18432 1.26597 6.39974 1.28443 5.92899 1.55211L1.93226 3.84123C1.41536 4.1366 1 4.85657 1 5.43808Z" stroke="white" stroke-linecap="round" stroke-linejoin="round"/>
<path d="M6.78711 1.94922V13.9486" stroke="white" stroke-linecap="round" stroke-linejoin="round"/>
<path d="M13.4053 4.36719V16.7174" stroke="white" stroke-linecap="round" stroke-linejoin="round"/>
</svg>
