<svg width="19" height="16" viewBox="0 0 19 16" fill="none" xmlns="http://www.w3.org/2000/svg">
<path d="M5.00546 0.131229C5.1736 0.0395138 5.35228 0.18061 5.35228 0.372142V13.0572C5.35228 13.2792 5.20033 13.4666 5.00546 13.5728V13.5728L2.80268 14.8289C1.26542 15.71 0 14.9789 0 13.1979V4.07748C0 3.48695 0.421808 2.75581 0.946725 2.45586L5.00546 0.131229V0.131229Z" fill="white"/>
<path d="M11.6352 2.49665C11.8055 2.58101 11.9133 2.75464 11.9133 2.94472V15.2045C11.9133 15.573 11.5282 15.8149 11.1963 15.655L7.27517 13.7658C7.10217 13.6825 6.99219 13.5074 6.99219 13.3154V1.00284C6.99219 0.631983 7.38175 0.390192 7.71409 0.554777L11.6352 2.49665Z" fill="white"/>
<path d="M18.4748 2.86781V11.9882C18.4748 12.5788 18.053 13.3099 17.5281 13.6099L14.3023 15.4586C13.969 15.6496 13.5537 15.409 13.5537 15.0248V2.73632C13.5537 2.55681 13.6499 2.39107 13.8058 2.30208L15.6721 1.23682C17.2094 0.355708 18.4748 1.08684 18.4748 2.86781Z" fill="white"/>
</svg>
